<?xml version="1.0" encoding="UTF-8"?>
<svg id="Layer_1" data-name="Layer 1" xmlns="http://www.w3.org/2000/svg" viewBox="0 0 996 291.47">
  <path d="m0,117.98C0,97.85,0,77.72,0,57.59c0-9.45,5.58-15.09,15.06-15.1,29.79-.01,59.58-.03,89.37.03,8.13.02,15.77,1.92,22.34,6.99,6.46,4.99,10.63,11.41,11.68,19.59,1.83,14.24.31,27.87-7.6,40.31-1.9,3-1.73,3.26,1.29,5.46,10.02,7.29,16.04,17.13,18.21,29.27,1.34,7.49,1.33,15.04.34,22.6-2.06,15.8-15.85,26.08-29.39,26.71-2.18.1-4.36.18-6.54.18-32.61.01-65.23,0-97.84.03-4.04,0-7.9-.35-11.35-2.82-2.89-2.07-4.64-4.76-5.09-8.24-.25-1.9-.3-3.84-.31-5.75-.02-19.62-.01-39.24-.01-58.85H0Zm38.92,13.72v-26.96c1.26-.08,2.38-.2,3.5-.2,13.22-.03,26.44,0,39.67-.07,3.2-.01,6.4-.28,9.61-.42,10.2-.43,18.55-8.64,19.5-18.43.47-4.93.99-9.91-.73-15.09-2.76-.33-5.42-.92-8.07-.93-23.62-.07-47.24-.05-70.86-.04-1.25,0-2.5.11-3.94.17v97.04c1.76,0,3.26.02,4.77,0,4.11-.06,8.21-.21,12.32-.21,19-.02,38,0,57,0,5.26,0,10.53.03,15.79.05,4.76.02,6.24-.96,6.48-5.56.21-4.18.17-8.5-.66-12.58-1.41-6.96-5.85-11.76-12.38-14.66-4.24-1.88-8.71-2.05-13.2-2.06-18.1-.06-36.2-.04-54.3-.05-1.39,0-2.79,0-4.49,0Z" style="fill: #99582a;"/>
  <path d="m905.46,193.43h-26.56v-36.12c-3.13-1.03-92.37-1.3-97.12-.37v35.82c-3.02,1.03-21.91,1.21-26.89.32-.06-1.17-.19-2.41-.19-3.65-.01-24.23.03-48.46-.02-72.69-.04-18.26,5.4-34.62,17.25-48.55,12.91-15.17,29.62-23.31,49.41-25.11,4.98-.45,10-.54,15-.56,17.46-.07,34.92-.04,52.38-.01,2.04,0,4.13.08,6.11.49,6.58,1.37,10.63,6.27,10.95,12.98.07,1.41.09,2.82.09,4.23,0,42.43,0,84.87-.01,127.3,0,2.01-.26,4.01-.4,5.91Zm-27.52-123.85c-1.64,0-3.01,0-4.39,0-12.71,0-25.42-.11-38.12.04-7.85.09-15.61,1.17-23.07,3.72-12.15,4.14-21.11,11.9-26.36,23.7-4.48,10.06-3.81,20.75-3.72,31.36,0,.21.26.42.44.7.32.08.68.26,1.04.26,30.68.03,61.35.04,92.03.04.51,0,1.01-.12,1.52-.2.11-.02.21-.13.3-.21.1-.08.18-.19.34-.36v-59.04Z" style="fill: #99582a;"/>
  <path d="m573.53,193.34v-26.78c2.59,0,5.24,0,7.88,0,27.61.05,55.21.12,82.82.16,5.14,0,10.27-.05,15.41-.1,13.2-.13,18.36-11.95,16.08-21.42-1.32-5.48-3.95-9.87-9.27-11.9-2.79-1.07-5.99-1.43-9.02-1.48-11.55-.17-23.11-.09-34.67-.09-8.73,0-17.47.19-26.19,0-19.05-.43-33.11-8.95-41.19-26.39-1.58-3.4-2.36-7.31-2.8-11.07-1.03-8.86-.84-17.71,3.02-26.01,7.84-16.84,21.59-24.93,39.74-25.64,11.8-.47,23.62-.12,35.44-.12,17.85,0,35.7,0,53.55,0,1.52,0,3.04,0,4.96,0,.39,9.09.16,17.83.18,27.07h-4.9c-28.51,0-57.01-.01-85.52.02-2.43,0-4.88.2-7.27.57-6.33.96-9.79,5.19-11.64,10.89-1.3,3.99-1.15,8.14.03,12.15,1.74,5.91,5.62,9.72,11.82,10.72,2.77.45,5.62.57,8.44.58,18.88.05,37.75.02,56.63.02,7.53,0,14.82,1.12,21.67,4.45,9.71,4.73,17.11,11.75,21.28,21.79,3.58,8.63,4.1,17.62,2.6,26.8-1.13,6.94-3.45,13.27-7.8,18.92-5.19,6.75-12,11.06-19.73,14.15-5.42,2.17-11.11,2.95-16.93,2.95-33.51-.01-67.03-.02-100.54-.05-1.25,0-2.51-.12-4.06-.2Z" style="fill: #99582a;"/>
  <path d="m262.4,195.57c-7.57,0-15.16.39-22.71-.07-20.88-1.28-36.99-10.96-48.45-28.41-6.59-10.04-9.51-21.18-9.63-33.07-.11-10.63-.14-21.27.04-31.91.31-18.33,6.88-34.02,20.7-46.28,10.4-9.23,22.72-14.63,36.64-15,17.04-.46,34.18-1.01,51.15.21,23.03,1.65,43.45,16.68,51.56,40.19,2.58,7.48,3.58,15.16,3.53,23.04-.07,9.74,0,19.48-.02,29.22-.03,11.23-2.5,21.85-8.1,31.64-7.59,13.28-19.01,21.96-33.21,27.16-7.8,2.85-15.97,3.47-24.2,3.47-5.77,0-11.55,0-17.32,0,0-.06,0-.12,0-.18Zm.26-27.1c0,.07,0,.13,0,.2,6.67,0,13.34-.1,20.01.03,5.61.1,10.93-1.1,15.93-3.45,11.75-5.53,18.48-14.97,19.15-27.81.66-12.65.19-25.36.12-38.04-.03-5.5-1.93-10.53-4.65-15.21-6.17-10.65-15.82-15.92-27.83-16.44-12.04-.52-24.11-.28-36.17-.34-5.11-.03-10.21-.12-15.22,1.34-3.8,1.1-7.41,2.54-10.6,4.86-10.03,7.3-14.78,17.26-14.74,29.59.03,9.74.04,19.47,0,29.21-.02,6.89,1.45,13.4,4.84,19.42,5.64,10,14.65,15.29,25.69,16.49,7.73.84,15.63.16,23.46.16Z" style="fill: #99582a;"/>
  <path d="m507.61,147.44V42.65c9.15-.28,17.8-.13,26.87-.1.1,1.81.26,3.29.26,4.77.03,21.79.04,43.58.06,65.38.02,22.69.02,45.38.06,68.07,0,6.02-2.25,10.68-7.78,13.49-3.94,2.01-7.97,2.06-11.78-.04-2.09-1.15-4.01-2.78-5.68-4.51-14.34-14.86-28.58-29.81-42.88-44.71-15.9-16.56-31.85-33.08-47.77-49.61-2.37-2.46-4.74-4.93-7.2-7.49-1.64,1.62-1.05,3.24-1.05,4.66-.02,18.59.03,37.17.04,55.76,0,13.72-.05,27.43-.07,41.15,0,1.27,0,2.53,0,4.02h-27.16c0-1.64,0-3.25,0-4.87,0-31.15,0-62.3,0-93.45,0-13.33.01-26.66-.06-40-.02-3.48.91-6.56,3.04-9.3,5.24-6.73,14.12-7.51,20.21-1.53,5.85,5.75,11.49,11.73,17.17,17.65,25.05,26.09,50.09,52.2,75.13,78.3,1.69,1.76,3.29,3.6,5.01,5.32.84.84,1.86,1.49,2.8,2.23.27-.14.54-.27.81-.41Z" style="fill: #99582a;"/>
  <path d="m949.48,42.73h26.5v150.81h-26.16c-.81-2.99-1.14-143.13-.34-150.81Z" style="fill: #99582a;"/>
  <path d="m173.23,263.84c1.86,2.05,3.32,3.28,4.32,4.82,3.24,4.99,3.34,10.49,1.54,15.88-1.24,3.71-4.6,5.34-8.35,5.88-1.77.26-3.58.26-5.38.27-9.24.02-18.49,0-27.73,0-.9,0-1.8,0-2.69-.08-3.56-.33-4.9-1.71-5.21-5.38-.09-1.02-.1-2.05-.11-3.07-.06-11.54-.11-23.07-.16-34.61,0-.89,0-1.8.14-2.68.42-2.83,1.24-3.71,4.11-4.21,1.51-.27,3.06-.4,4.59-.41,8.09-.04,16.18-.02,24.26-.02.64,0,1.28,0,1.92.03,7.97.42,12.63,6.02,11.36,13.93-.4,2.47-1.47,4.83-2.18,7.27-.28.95-.37,1.96-.45,2.39Zm-34.43-14.11c-.77,6.55-.47,29.02.41,31.84h30.55c2.39-5.8-.05-10.33-5.89-11.19-1.26-.19-2.56-.16-3.84-.16-4.88-.03-9.75-.03-14.63-.04-1.3,0-2.84.05-2.89-1.72-.07-2.49-.69-5.07.61-7.57,1.09-.06,2.1-.14,3.11-.17,4.36-.12,8.72-.14,13.08-.35,4.44-.22,6.5-2.14,7.25-6.43.6-3.45-.12-4.38-3.75-4.41-7.06-.06-14.12-.04-21.17-.04-.87,0-1.75.15-2.85.25Z" style="fill: #99582a;"/>
  <path d="m547.47,290.43h-8.56v-26.45c-1.92-.6-2.52.3-3.13,1.35-4.28,7.44-8.55,14.88-12.93,22.26-.8,1.34-1.32,3.09-3.39,3.35-2.67.34-4.27-.76-5.57-3.05-4.22-7.47-8.63-14.83-12.88-22.28-.69-1.2-1.23-2.23-3.27-1.67v26.48h-8.53c-.11-1.23-.26-2.21-.26-3.2-.05-13.33-.08-26.67-.11-40,0-1.15.01-2.32.17-3.45.3-2.09,1.48-3.53,3.54-4.11,1.68-.47,3.62.43,4.8,2.35,1.87,3.06,3.64,6.18,5.43,9.3,5.04,8.76,10.06,17.53,15.28,26.63.64-.92,1.17-1.56,1.59-2.28,5.83-10.1,11.65-20.21,17.48-30.32.51-.89,1-1.79,1.56-2.65,1.61-2.45,3.47-3.46,5.31-2.94,2.13.61,3.51,2.6,3.65,5.29.01.26.01.51.01.77,0,14.1.01,28.21,0,42.31,0,.74-.12,1.48-.19,2.31Z" style="fill: #99582a;"/>
  <path d="m741.06,240.7v8.32c-1.82,0-3.46,0-5.11,0-9.88,0-19.76-.05-29.64-.01-5.97.02-6.11.19-6.13,5.96-.02,6.92.02,13.84.03,20.75,0,1.52,0,3.05,0,4.94,1.84.39,3.41.99,4.99,1.01,8.72.09,17.45.04,26.17.03.36,0,.73-.18,1.41-.36v-10.97c-7.73-1-15.66.2-23.64-.78-1.13-2.7-.68-5.34-.34-8.23.83-.12,1.67-.35,2.51-.36,7.95-.03,15.91-.06,23.86,0,4.81.03,6.51,1.73,6.56,6.48.05,5.76.06,11.53-.01,17.29-.05,4.19-1.63,5.85-5.84,5.88-10.26.07-20.53.09-30.79-.05-5.1-.07-9.65-1.6-12.18-6.53-.62-1.21-1.15-2.64-1.17-3.97-.1-9.98-.19-19.97.02-29.95.09-4.29,3.86-8.27,8.13-9.15,2.24-.47,4.57-.73,6.86-.75,9.75-.08,19.5-.05,29.25-.01,1.62,0,3.23.29,5.05.46Z" style="fill: #99582a;"/>
  <path d="m315.75,274.53c6.45,5.54,12.24,10.52,18.47,15.87-2.33.76-4.21.15-6,.39-5.35.73-9.57-1.02-13.32-4.96-3.25-3.42-7.2-6.17-10.68-9.38-1.89-1.75-3.8-2.89-6.46-2.48-.74.12-1.53-.05-2.62-.09v-8.74c6.48,0,12.86.12,19.24-.07,1.96-.06,4.06-.63,5.81-1.52,1.96-1,3.31-2.79,3.28-5.26-.04-2.91,0-5.81,0-9h-32.26c-.06,1.55-.17,2.91-.17,4.27-.01,10.5,0,21.01-.02,31.51,0,1.77-.18,3.54-.29,5.51h-8.66c0-1.72,0-3.21,0-4.7-.03-13.06-.07-26.13-.09-39.19,0-1.02.05-2.06.27-3.04.36-1.62,1.29-2.76,3.11-2.91,1.66-.14,3.31-.48,4.96-.49,9.62-.05,19.25.22,28.86-.09,9.39-.31,13.97,5,13.42,13.62-.21,3.29-.3,6.73-1.34,9.79-1.94,5.65-6.62,8.55-12.18,10.13-.82.23-1.65.42-3.32.84Z" style="fill: #99582a;"/>
  <path d="m570.27,278.69v11.15c-3.02,1.07-4.52,1.09-8.56.19-.08-.93-.22-1.93-.23-2.92-.04-7.18-.23-14.36,0-21.52.11-3.28.51-6.75,1.74-9.74,4.05-9.83,11.86-14.89,22.32-15.52,6.52-.4,13.09-.19,19.63-.05,5.67.12,6.85,1.5,6.85,7.27,0,12.94,0,25.88-.02,38.83,0,1.25-.11,2.51-.17,4.03h-8.55v-11.39c-3.23-.97-28.61-1.19-33.01-.32Zm32.45-28.98c-6.56,0-13.01-.64-19.27.15-9.19,1.16-14.52,10.02-12.26,19.17h31.54v-19.32Z" style="fill: #99582a;"/>
  <path d="m847.46,274.43c6.36,5.49,12.13,10.47,18.15,15.66-1.66,1.11-3.19.39-4.57.62-6.08.99-10.85-1.11-14.98-5.65-2.83-3.11-6.34-5.6-9.42-8.49-1.95-1.83-3.96-3.17-6.8-2.66-.72.13-1.49-.07-2.49-.13v-8.46c5.59,0,11.08-.02,16.56,0,2.71.01,5.39.03,7.82-1.47,1.95-1.21,3.46-2.7,3.5-5.15.05-3.04.01-6.09.01-9.43h-32.35v41.12h-8.49c-.11-1.12-.3-2.09-.3-3.07-.04-13.46-.06-26.93-.07-40.39,0-.89-.03-1.82.17-2.68.44-1.86,1.38-3.3,3.54-3.49,1.79-.15,3.57-.52,5.35-.53,9.24-.05,18.49.01,27.74-.04,9.64-.05,13.03,3.07,13.59,13,.21,3.71.12,7.4-1.48,10.92-2.83,6.23-8.04,8.99-15.48,10.3Z" style="fill: #99582a;"/>
  <path d="m216.6,291.47c-3.07-.16-6.16-.2-9.22-.5-7.42-.71-15.98-9.16-16.45-16.66-.37-5.87-.58-11.84.05-17.67.82-7.64,6.18-13.87,13.66-16.03,2.55-.74,5.28-.97,7.95-1.1,3.59-.18,7.21-.3,10.77.04,3.41.33,6.98.74,10.08,2.06,7.28,3.08,10.85,9.17,11.5,16.83.4,4.71.37,9.49.09,14.21-.57,9.8-7.82,17.14-18.05,18.28-3.42.38-6.92.06-10.38.06,0,.16,0,.32,0,.47Zm1.47-42.82s0,.01,0,.02c-2.95,0-5.91-.17-8.84.04-5.86.42-9.22,5.02-9.61,9.77-.37,4.45-.28,8.97.04,13.43.42,5.9,4.58,10.04,10.47,10.37,5.24.3,10.52.29,15.77.05,4.96-.23,9.23-3.87,9.72-8.79.53-5.31.58-10.73.14-16.05-.39-4.79-4.47-8.36-9.23-8.8-2.8-.26-5.63-.05-8.45-.05Z" style="fill: #99582a;"/>
  <path d="m668.5,273.81v-33.25h8.33c.11.89.31,1.74.31,2.59.03,14.1.03,28.2.03,42.3,0,.89.04,1.84-.25,2.66-1.1,3.18-4.94,4.02-7.46,1.53-4.11-4.05-8.1-8.22-12.11-12.37-6.06-6.27-12.09-12.57-18.15-18.84-.83-.86-1.78-1.6-3.13-2.22-.56,5.87-.48,11.57-.5,17.26-.02,5.62,0,11.23,0,17.02h-8.48c-.1-1.44-.28-2.82-.29-4.21-.02-13.46-.02-26.92,0-40.38,0-1.02,0-2.07.19-3.07.55-2.77,3.91-4.25,6.24-2.72,1.16.76,2.2,1.76,3.18,2.77,9.07,9.43,18.1,18.89,27.18,28.31,1.18,1.22,2.16,2.93,4.92,2.59Z" style="fill: #99582a;"/>
  <path d="m764.13,249.03c0,10.09-.06,19.3.03,28.51.04,3.38.93,4.16,4.55,4.19,8.85.07,17.7.03,26.54.03q5.95,0,5.82,5.91c-.02.86-.16,1.73-.26,2.73-.76.11-1.38.26-1.99.26-9.87.01-19.75.01-29.62-.01-3,0-5.92-.57-8.4-2.3-3.31-2.31-5.46-5.46-5.49-9.62-.07-11.01-.08-22.02.02-33.03.03-3.75,1.36-4.9,4.79-5.16,1.28-.09,2.55-.31,3.82-.31,11.03-.03,22.06-.03,33.08,0,3.94,0,4.02.13,4.05,4.15.01,1.38,0,2.76,0,4.65h-36.95Z" style="fill: #99582a;"/>
  <path d="m385.68,240.21v8.87h-36.53v31.23c2.02,1.53,4.35,1.43,6.62,1.44,8.34.03,16.68-.01,25.02.03,1.63,0,3.26.26,5,.41v8.18c-.93.11-1.77.3-2.61.3-9.37.02-18.73.01-28.1.02-3.52,0-6.88-.55-9.88-2.56-3.08-2.06-4.93-4.84-4.95-8.6-.05-11.4-.11-22.81-.03-34.21.03-3.9,1.16-4.88,5.18-5.06,2.18-.1,4.36-.03,6.54-.03,9.75,0,19.5,0,29.26,0,1.38,0,2.75,0,4.48,0Z" style="fill: #99582a;"/>
  <path d="m441.02,245.64v6.52c-1.54.18-3,.47-4.46.5-4.23.07-8.47-.08-12.71.07-2.26.08-4.5.57-7.01.92v6.68c3.47,1.49,6.83,1.08,10.13,1.16,6.13.15,6.14.13,5.84,6.35-.02.36-.2.71-.45,1.55-3.46,0-7.02.13-10.57-.03-4.17-.19-5.14.91-5.38,5.08,0,.13,0,.26-.01.38-.23,6.63.69,7.58,7.27,7.55,3.08-.01,6.16.06,9.24-.07,2.61-.11,4.24-1.78,4.52-4.28.64-5.81,2.86-7.87,8.59-7.99,1-.02,2,0,3.21,0v7.57c-.87.12-1.59.28-2.32.31-1.46.06-2.09.99-2.16,2.24-.37,6.5-6.6,9.86-11.25,10.03-4.61.17-9.25.2-13.86,0-5.82-.26-10.92-5.42-11.47-11.56-.33-3.7-.5-7.47,1.66-10.81,1.27-1.97.32-3.63-.48-5.41-2.42-5.36-1.51-10.57,2.76-14.34,1.38-1.22,3.28-2.48,5-2.57,7.42-.38,14.86-.35,22.29-.43.47,0,.94.34,1.61.6Z" style="fill: #99582a;"/>
  <path d="m980.76,0c2.05.15,3.84.28,5.63.42,5.79.44,9.45,5.27,9.58,10.24.09,3.53-.05,7.16-.75,10.61-.95,4.7-4.67,6.95-9.09,7.53-3.52.46-7.16.26-10.72.04-4.29-.26-9.1-4.93-9.59-9.6-.4-3.77-.4-7.46.5-11.04,1.05-4.13,3.79-6.96,8.18-7.68,2.14-.35,4.34-.37,6.26-.52Z" style="fill: #99582a;"/>
  <path d="m944.56,29.7c-2.71-.61-5.47-1.07-8.12-1.87-4.12-1.24-6.35-4.41-6.81-8.45-.39-3.39-.31-6.92.2-10.3.64-4.29,3.5-7.11,7.71-8.16,4.26-1.07,8.63-1.13,12.98-.46,4.99.77,8.31,4.06,8.96,9.08.34,2.65.48,5.36.35,8.03-.35,7.09-4.2,10.95-11.31,11.55-1.27.11-2.56.02-3.84.02-.03.19-.07.38-.11.57Z" style="fill: #99582a;"/>
  <path d="m258.73,290.44v-49.9h8.23v49.9h-8.23Z" style="fill: #99582a;"/>
  <path d="m381.3,269.84h-27.98v-8.61h27.98v8.61Z" style="fill: #99582a;"/>
  <path d="m796.58,261.49v7.93c-1,.2-1.85.53-2.7.53-7.44,0-14.88,0-22.31-.11-3.07-.04-3.34-.39-3.47-3.28-.07-1.64-.01-3.29-.01-4.83,3.11-.92,24.04-1.08,28.5-.24Z" style="fill: #99582a;"/>
</svg>